<svg xmlns="http://www.w3.org/2000/svg" width="118.002" height="66.999" viewBox="0 0 118.002 66.999">
  <g id="Group_685" data-name="Group 685" transform="translate(737.079 16789.078)">
    <g id="Group_682" data-name="Group 682" transform="translate(-737.078 -16789.078)">
      <ellipse id="Ellipse_330" data-name="Ellipse 330" cx="3.189" cy="3.192" rx="3.189" ry="3.192" transform="matrix(0.966, 0.259, -0.259, 0.966, 23.295, 59.183)" fill="#f86613"/>
      <ellipse id="Ellipse_323" data-name="Ellipse 323" cx="3.189" cy="3.192" rx="3.189" ry="3.192" transform="matrix(0.966, 0.259, -0.259, 0.966, 39.139, 0)" fill="#f86613"/>
      <ellipse id="Ellipse_331" data-name="Ellipse 331" cx="3.188" cy="3.19" rx="3.188" ry="3.19" transform="matrix(0.966, -0.259, 0.259, 0.966, 37.489, 60.835)" fill="#f86613"/>
      <ellipse id="Ellipse_324" data-name="Ellipse 324" cx="3.188" cy="3.19" rx="3.188" ry="3.19" transform="matrix(0.966, -0.259, 0.259, 0.966, 21.644, 1.652)" fill="#f86613"/>
      <ellipse id="Ellipse_332" data-name="Ellipse 332" cx="3.188" cy="3.188" rx="3.188" ry="3.188" transform="translate(50.606 55.162) rotate(-45)" fill="#f86613"/>
      <ellipse id="Ellipse_322" data-name="Ellipse 322" cx="3.188" cy="3.188" rx="3.188" ry="3.188" transform="translate(7.318 11.838) rotate(-45)" fill="#f86613"/>
      <ellipse id="Ellipse_325" data-name="Ellipse 325" cx="3.19" cy="3.188" rx="3.19" ry="3.188" transform="matrix(0.259, -0.966, 0.966, 0.259, 0, 27.828)" fill="#f86613"/>
      <ellipse id="Ellipse_333" data-name="Ellipse 333" cx="3.192" cy="3.189" rx="3.192" ry="3.189" transform="matrix(-0.259, -0.966, 0.966, -0.259, 1.651, 45.337)" fill="#f86613"/>
      <circle id="Ellipse_334" data-name="Ellipse 334" cx="3.191" cy="3.191" r="3.191" transform="translate(55.115 16.35) rotate(-135)" fill="#f86613"/>
      <circle id="Ellipse_335" data-name="Ellipse 335" cx="3.191" cy="3.191" r="3.191" transform="translate(11.827 59.675) rotate(-135)" fill="#f86613"/>
      <ellipse id="Ellipse_336" data-name="Ellipse 336" cx="1.914" cy="1.915" rx="1.914" ry="1.915" transform="matrix(0.966, 0.259, -0.259, 0.966, 26.837, 50.883)" fill="#f86613"/>
      <ellipse id="Ellipse_326" data-name="Ellipse 326" cx="1.914" cy="1.915" rx="1.914" ry="1.915" transform="matrix(0.966, 0.259, -0.259, 0.966, 37.4, 11.428)" fill="#f86613"/>
      <ellipse id="Ellipse_337" data-name="Ellipse 337" cx="2.09" cy="2.091" rx="2.09" ry="2.091" transform="matrix(0.966, -0.259, 0.259, 0.966, 36.105, 51.417)" fill="#f86613"/>
      <ellipse id="Ellipse_327" data-name="Ellipse 327" cx="2.09" cy="2.091" rx="2.09" ry="2.091" transform="matrix(0.966, -0.259, 0.259, 0.966, 25.719, 12.626)" fill="#f86613"/>
      <circle id="Ellipse_338" data-name="Ellipse 338" cx="2.09" cy="2.09" r="2.09" transform="translate(44.703 47.699) rotate(-45)" fill="#f86613"/>
      <circle id="Ellipse_328" data-name="Ellipse 328" cx="2.09" cy="2.09" r="2.09" transform="translate(16.329 19.302) rotate(-45)" fill="#f86613"/>
      <ellipse id="Ellipse_329" data-name="Ellipse 329" cx="1.914" cy="1.913" rx="1.914" ry="1.913" transform="matrix(0.259, -0.966, 0.966, 0.259, 11.418, 29.568)" fill="#f86613"/>
      <ellipse id="Ellipse_339" data-name="Ellipse 339" cx="2.092" cy="2.09" rx="2.092" ry="2.09" transform="matrix(-0.259, -0.966, 0.966, -0.259, 12.614, 41.26)" fill="#f86613"/>
      <circle id="Ellipse_340" data-name="Ellipse 340" cx="2.092" cy="2.092" r="2.092" transform="translate(47.658 22.259) rotate(-135)" fill="#f86613"/>
      <circle id="Ellipse_341" data-name="Ellipse 341" cx="2.092" cy="2.092" r="2.092" transform="translate(19.285 50.656) rotate(-135)" fill="#f86613"/>
    </g>
    <g id="Group_681" data-name="Group 681" transform="translate(-710.995 -16764.83)">
      <path id="Union_2" data-name="Union 2" d="M37.352,10.418v-1.8C37.352,3.392,40.42,0,46.033,0S54.7,3.432,54.7,8.614v1.8c0,5.155-3.042,8.56-8.668,8.56S37.352,15.573,37.352,10.418Zm5.788-1.884v1.911c0,2.652,1.09,4.051,2.894,4.051s2.88-1.4,2.88-4.051V8.533c0-2.638-1.09-4.051-2.88-4.051S43.139,5.9,43.139,8.533Zm-11.5,10.135-6.3-9.045h-.215v9.045h-5.5l-6.3-9.045H13.1v9.045H7.922V.3h4.24L18.42,9.179h.215V.3H24.18l6.259,8.883h.215V.3h5.182V18.668ZM0,18.668V.3H5.653V18.668Z" transform="translate(0 0)" fill="#192552" stroke="rgba(0,0,0,0)" stroke-miterlimit="10" stroke-width="1"/>
      <path id="Path_21" data-name="Path 21" d="M19.262-12.953V-31.326H13.609v6.932H8.292v-6.932H2.639v18.372H8.292v-6.959h5.317v6.959ZM38.678-31.326h-5.9l-5.343,7.2h-.256v-7.2H21.53v18.372h5.653v-5.02l1.279-1.615L32.3-12.953H38.84L32.581-23.277Z" transform="translate(53.078 31.622)" fill="#192552"/>
    </g>
  </g>
</svg>
